<?xml version="1.0" encoding="UTF-8"?>
<svg xmlns="http://www.w3.org/2000/svg" xmlns:xlink="http://www.w3.org/1999/xlink" width="63px" height="25px" viewBox="0 0 62 25" version="1.1">
<g id="surface1">
<path style=" stroke:none;fill-rule:nonzero;fill:rgb(0%,0%,0%);fill-opacity:1;" d="M 12.394531 0.0976562 C 11.5625 0.234375 10.675781 0.488281 9.695312 0.859375 C 7.628906 1.636719 5.984375 2.785156 4.351562 4.5625 C 3.691406 5.292969 3.542969 5.410156 3.125 5.546875 C 2.550781 5.746094 2.097656 6.089844 1.640625 6.664062 C 1.203125 7.195312 1.128906 7.410156 1.128906 8.089844 C 1.128906 9.238281 1.589844 9.894531 2.519531 10.097656 C 2.785156 10.164062 2.800781 10.253906 2.582031 10.476562 C 2.375 10.6875 2.195312 10.679688 1.613281 10.441406 C 1.347656 10.328125 1.128906 10.253906 1.128906 10.269531 C 1.128906 10.285156 1.082031 10.574219 1.015625 10.902344 C 0.886719 11.605469 0.597656 12.359375 0.242188 12.941406 C 0.113281 13.164062 0 13.375 0 13.410156 C 0 13.441406 0.1875 13.53125 0.410156 13.613281 C 1.195312 13.902344 1.921875 14.925781 2.003906 15.859375 C 2.050781 16.441406 1.984375 16.632812 1.613281 17.074219 C 1.363281 17.359375 1.300781 17.5 1.339844 17.640625 C 1.800781 19.207031 3.285156 21.335938 5.675781 23.855469 C 5.964844 24.164062 6.234375 24.410156 6.28125 24.410156 C 6.320312 24.410156 6.28125 24.164062 6.199219 23.855469 C 6.078125 23.460938 6.03125 23.035156 6.023438 22.320312 C 6.015625 21.1875 6.113281 20.863281 6.476562 20.820312 C 6.765625 20.789062 6.945312 20.894531 7.6875 21.535156 C 8.035156 21.828125 8.605469 22.269531 8.976562 22.527344 C 9.640625 22.984375 9.640625 22.984375 9.738281 23.460938 C 9.785156 23.722656 9.882812 23.984375 9.9375 24.042969 C 10.003906 24.101562 10.3125 24.230469 10.617188 24.328125 C 10.933594 24.4375 11.433594 24.625 11.738281 24.753906 C 12.046875 24.878906 12.378906 24.984375 12.472656 24.984375 C 12.570312 24.984375 12.820312 24.855469 13.023438 24.691406 L 13.402344 24.386719 L 14.03125 24.492188 C 14.871094 24.640625 16.585938 24.625 17.519531 24.46875 C 18.410156 24.3125 19.53125 24 20.226562 23.699219 C 20.929688 23.402344 21.015625 23.394531 21.394531 23.582031 C 21.976562 23.871094 22.105469 23.828125 23.253906 23.007812 C 24.40625 22.191406 24.441406 22.148438 24.351562 21.402344 L 24.304688 20.960938 L 24.746094 20.460938 C 25.683594 19.410156 26.667969 17.640625 27.113281 16.214844 C 27.324219 15.539062 27.476562 14.828125 27.660156 13.695312 L 27.703125 13.425781 L 28.113281 13.640625 C 28.339844 13.753906 29.382812 14.328125 30.414062 14.910156 C 31.449219 15.492188 32.359375 15.96875 32.441406 15.96875 C 32.742188 15.96875 32.941406 16.214844 33.113281 16.8125 C 33.46875 18.050781 33.539062 18.214844 33.847656 18.558594 C 34.4375 19.214844 35.21875 19.207031 36.566406 18.550781 C 38.027344 17.835938 38.390625 17.960938 38.8125 19.328125 C 38.910156 19.648438 39.320312 18.402344 39.320312 17.789062 C 39.320312 16.984375 38.941406 16.714844 37.441406 16.460938 C 36.558594 16.304688 36.332031 16.195312 36.332031 15.925781 C 36.332031 15.867188 36.453125 15.761719 36.609375 15.679688 C 37.15625 15.378906 38.199219 15.679688 38.933594 16.359375 C 39.117188 16.523438 39.554688 17.042969 39.902344 17.5 C 40.25 17.960938 40.667969 18.417969 40.839844 18.523438 C 41.265625 18.796875 41.734375 18.769531 42.421875 18.441406 C 43.066406 18.140625 43.210938 18.125 43.519531 18.34375 C 43.808594 18.558594 43.867188 18.460938 43.753906 17.941406 C 43.617188 17.296875 43.292969 17.074219 42.363281 16.976562 C 41.800781 16.917969 41.46875 16.777344 41.339844 16.542969 C 41.21875 16.304688 41.308594 16.066406 41.582031 15.925781 C 41.929688 15.746094 42.234375 15.777344 42.65625 16.050781 C 43.148438 16.367188 43.601562 17 44.277344 18.34375 C 45.175781 20.125 45.699219 20.789062 46.539062 21.179688 C 47.332031 21.558594 47.910156 21.425781 49.226562 20.566406 C 50.300781 19.871094 50.640625 19.820312 51.085938 20.269531 C 51.246094 20.433594 51.382812 20.550781 51.40625 20.535156 C 51.464844 20.46875 51.269531 19.730469 51.117188 19.425781 C 50.921875 19.042969 50.664062 18.796875 50.285156 18.632812 C 49.839844 18.453125 49.421875 18.476562 48.6875 18.753906 C 47.925781 19.042969 47.644531 19.058594 47.394531 18.851562 C 47.25 18.730469 47.21875 18.648438 47.265625 18.476562 C 47.355469 18.125 48.039062 17.84375 48.9375 17.789062 C 49.613281 17.746094 49.679688 17.761719 50.171875 18.007812 C 50.996094 18.417969 51.675781 19.171875 53.207031 21.378906 C 53.910156 22.394531 54.644531 23.164062 55.144531 23.425781 C 55.347656 23.535156 55.710938 23.632812 55.992188 23.648438 C 56.695312 23.707031 57.1875 23.484375 58.335938 22.597656 C 59.878906 21.410156 60.433594 21.1875 61.410156 21.378906 C 61.703125 21.433594 61.960938 21.453125 61.992188 21.417969 C 62.074219 21.335938 61.46875 20.835938 60.984375 20.589844 C 60.257812 20.222656 59.628906 20.179688 58.253906 20.386719 C 56.960938 20.589844 56.566406 20.574219 55.953125 20.304688 C 54.566406 19.679688 54.355469 17.8125 55.613281 17.1875 C 56.210938 16.894531 56.632812 17.050781 57.769531 17.976562 C 58.171875 18.304688 58.625 18.640625 58.777344 18.722656 C 59.214844 18.941406 59.75 18.910156 60.199219 18.625 C 60.636719 18.351562 60.773438 18.132812 60.464844 18.207031 C 60.214844 18.261719 59.773438 18.105469 59.410156 17.820312 C 59.246094 17.695312 58.859375 17.214844 58.535156 16.746094 C 57.617188 15.394531 56.859375 14.941406 55.839844 15.132812 C 55.347656 15.230469 55.25 15.269531 53.847656 16.023438 C 52.964844 16.5 52.496094 16.605469 51.785156 16.484375 C 51.214844 16.386719 50.84375 16.222656 50.453125 15.894531 C 50.117188 15.597656 50.1875 15.492188 50.625 15.671875 C 51.027344 15.835938 51.433594 15.835938 51.796875 15.6875 C 52.117188 15.550781 52.167969 15.394531 51.890625 15.394531 C 51.601562 15.394531 51.390625 15.1875 51.132812 14.640625 C 50.800781 13.949219 50.4375 13.605469 50.019531 13.582031 C 49.574219 13.558594 49.355469 13.640625 48.878906 14.007812 C 48.363281 14.410156 48.074219 14.425781 47.683594 14.082031 C 47.53125 13.941406 47.289062 13.648438 47.144531 13.417969 C 46.796875 12.859375 46.894531 12.761719 47.53125 13.023438 C 48.058594 13.246094 48.800781 13.277344 49.210938 13.105469 L 49.453125 13 L 49.140625 12.84375 C 48.71875 12.640625 48.597656 12.523438 47.992188 11.738281 C 47.097656 10.566406 46.675781 10.53125 45.253906 11.5 C 44.828125 11.785156 44.351562 12.046875 44.1875 12.082031 C 43.835938 12.148438 43.261719 12.074219 42.953125 11.910156 C 42.753906 11.804688 42.710938 11.738281 42.726562 11.539062 C 42.734375 11.402344 42.769531 11.292969 42.800781 11.292969 C 42.832031 11.292969 42.890625 11.222656 42.914062 11.121094 C 42.996094 10.867188 43.421875 10.710938 43.800781 10.800781 C 43.980469 10.84375 44.132812 10.859375 44.148438 10.851562 C 44.230469 10.761719 43.359375 10.128906 43.011719 10.023438 C 42.492188 9.867188 42.257812 9.867188 41.089844 10.03125 L 40.136719 10.164062 L 39.804688 9.976562 C 39.449219 9.769531 38.996094 9.15625 38.996094 8.882812 C 39.003906 8.621094 39.296875 8.023438 39.449219 7.957031 C 39.539062 7.925781 39.894531 8.066406 40.402344 8.335938 C 41.378906 8.84375 41.757812 8.875 42.46875 8.539062 L 42.914062 8.328125 L 42.46875 8.226562 C 41.785156 8.082031 41.589844 7.910156 41.058594 6.910156 C 40.644531 6.144531 40.410156 5.84375 39.984375 5.507812 C 39.683594 5.277344 39.554688 5.226562 39.214844 5.226562 C 38.296875 5.226562 37.867188 5.523438 37.109375 6.6875 C 36.480469 7.65625 36.339844 7.761719 35.984375 7.53125 C 35.597656 7.292969 20.425781 1.1875 19.296875 0.816406 C 18.480469 0.546875 17.511719 0.316406 16.648438 0.179688 C 15.542969 0.0078125 13.199219 -0.0429688 12.394531 0.0976562 Z M 10.414062 1.441406 C 10.414062 1.472656 10.230469 1.578125 10.011719 1.6875 C 8.890625 2.210938 6.742188 4.054688 6.085938 5.0625 L 5.863281 5.410156 L 5.417969 5.359375 C 5.175781 5.328125 4.957031 5.285156 4.941406 5.269531 C 4.875 5.203125 5.757812 4.253906 6.363281 3.734375 C 7.421875 2.835938 8.4375 2.195312 9.648438 1.6875 C 10.480469 1.335938 10.414062 1.359375 10.414062 1.441406 Z M 17.714844 2.03125 C 18.746094 2.234375 20.386719 2.800781 22.324219 3.613281 C 23.125 3.949219 25.199219 4.800781 26.925781 5.515625 C 28.664062 6.226562 30.558594 7.007812 31.148438 7.246094 C 32.054688 7.613281 32.304688 7.761719 32.75 8.15625 C 33.03125 8.417969 33.28125 8.6875 33.304688 8.753906 C 33.410156 9.074219 32.78125 10.695312 32.464844 10.941406 C 32.183594 11.164062 31.511719 10.984375 31.328125 10.648438 C 31.191406 10.367188 31.238281 10.046875 31.5625 9.269531 C 31.730469 8.851562 31.84375 8.53125 31.8125 8.546875 C 31.769531 8.574219 31.578125 9.023438 31.367188 9.554688 L 30.988281 10.53125 L 31.15625 10.867188 C 31.398438 11.34375 31.640625 11.492188 32.09375 11.433594 C 32.328125 11.402344 32.457031 11.410156 32.457031 11.464844 C 32.457031 11.628906 32.289062 11.867188 32.167969 11.867188 C 32.003906 11.867188 26.320312 8.992188 26.320312 8.910156 C 26.320312 8.875 26.425781 8.828125 26.5625 8.792969 C 26.796875 8.746094 27.289062 8.261719 27.289062 8.074219 C 27.289062 8.023438 27.234375 8.066406 27.160156 8.164062 C 26.765625 8.746094 25.835938 8.710938 25.328125 8.105469 C 25.0625 7.777344 25.039062 7.292969 25.273438 6.828125 L 25.433594 6.5 L 25.191406 6.761719 C 24.882812 7.105469 24.753906 7.574219 24.875 7.925781 C 24.925781 8.074219 24.949219 8.203125 24.933594 8.21875 C 24.917969 8.246094 23.882812 7.761719 22.640625 7.15625 C 19.5 5.628906 18.765625 5.410156 17.011719 5.5 C 15.605469 5.574219 14.429688 5.957031 13.242188 6.738281 C 11.691406 7.753906 10.714844 9.121094 10.125 11.097656 C 9.921875 11.746094 9.898438 11.957031 9.898438 13.015625 C 9.898438 13.976562 9.929688 14.34375 10.078125 14.933594 C 10.433594 16.359375 11.148438 17.625 12.175781 18.597656 C 12.886719 19.289062 13.320312 19.589844 14.152344 19.984375 C 16.285156 21 18.699219 21.007812 20.808594 20.023438 C 22.285156 19.335938 23.761719 17.871094 24.503906 16.378906 C 24.84375 15.695312 25.320312 14.386719 25.394531 13.957031 C 25.433594 13.695312 25.386719 13.769531 25.175781 14.285156 C 24.578125 15.730469 23.488281 17.214844 22.4375 18.015625 C 21.347656 18.84375 19.628906 19.550781 19.214844 19.328125 C 18.957031 19.1875 19.121094 19.007812 19.8125 18.65625 C 20.726562 18.195312 21.371094 17.707031 21.992188 17.015625 C 22.582031 16.359375 23.15625 15.320312 23.367188 14.53125 C 23.535156 13.902344 23.609375 12.394531 23.511719 11.703125 C 23.421875 11.140625 23.480469 10.957031 23.664062 11.179688 C 23.753906 11.285156 23.777344 11.628906 23.769531 12.722656 C 23.769531 13.722656 23.785156 14.039062 23.84375 13.835938 C 23.882812 13.679688 23.914062 13.023438 23.914062 12.375 C 23.914062 11.300781 23.929688 11.210938 24.0625 11.210938 C 24.292969 11.210938 24.335938 11.351562 24.390625 12.320312 L 24.449219 13.222656 L 24.433594 12.253906 C 24.414062 11.253906 24.441406 11.179688 24.753906 11.410156 C 24.867188 11.5 24.917969 11.664062 24.957031 12.089844 L 25.003906 12.648438 L 25.011719 12.089844 C 25.03125 11.546875 25.039062 11.53125 25.214844 11.582031 C 25.5625 11.6875 26.007812 12.039062 26.136719 12.328125 C 26.265625 12.597656 26.265625 12.679688 26.144531 13.53125 C 25.75 16.269531 24.277344 19 22.347656 20.574219 C 21.023438 21.65625 20.378906 22.027344 19.03125 22.484375 C 15.460938 23.679688 11.59375 22.863281 8.761719 20.3125 C 7.960938 19.597656 7.75 19.253906 7.75 18.671875 C 7.75 18.304688 7.800781 18.132812 7.960938 17.886719 C 8.242188 17.449219 8.625 17.058594 8.945312 16.851562 C 9.292969 16.632812 9.238281 16.589844 8.800781 16.746094 C 8.613281 16.8125 8.242188 16.867188 7.984375 16.867188 C 7.410156 16.867188 7.273438 16.714844 7.421875 16.214844 C 7.523438 15.859375 8.015625 15.066406 8.445312 14.558594 C 8.605469 14.367188 8.382812 14.574219 7.945312 15.023438 C 7.058594 15.933594 6.453125 16.867188 6.289062 17.589844 L 6.191406 18.015625 L 5.863281 18.015625 C 5.675781 18.015625 5.394531 18.089844 5.222656 18.179688 L 4.925781 18.34375 L 4.875 18.105469 C 4.84375 17.976562 4.746094 17.789062 4.652344 17.6875 C 4.480469 17.542969 4.410156 17.523438 3.875 17.574219 C 3.382812 17.625 3.246094 17.671875 3.019531 17.878906 C 2.867188 18.007812 2.746094 18.164062 2.746094 18.230469 C 2.746094 18.46875 2.617188 18.328125 2.480469 17.941406 C 2.292969 17.402344 2.300781 17.359375 2.632812 16.859375 C 3.222656 16 3.375 15.097656 3.058594 14.441406 C 2.785156 13.859375 2.089844 13.34375 1.429688 13.222656 C 1.269531 13.1875 1.128906 13.148438 1.128906 13.121094 C 1.128906 13.097656 1.195312 12.984375 1.285156 12.867188 C 1.363281 12.746094 1.582031 12.34375 1.769531 11.964844 C 1.953125 11.597656 2.140625 11.292969 2.179688 11.292969 C 2.21875 11.292969 2.519531 11.402344 2.851562 11.53125 C 3.890625 11.949219 4.867188 12.058594 5.628906 11.828125 C 6.402344 11.589844 6.945312 10.6875 6.945312 9.621094 C 6.945312 8.621094 6.53125 8.246094 5.621094 8.425781 C 5.351562 8.484375 4.789062 8.648438 4.359375 8.800781 C 3.375 9.164062 3.132812 9.164062 2.785156 8.808594 C 2.574219 8.597656 2.519531 8.484375 2.550781 8.335938 C 2.589844 8.148438 2.589844 8.148438 2.46875 8.292969 C 2.398438 8.382812 2.339844 8.484375 2.339844 8.523438 C 2.339844 8.554688 2.308594 8.589844 2.261719 8.589844 C 2.117188 8.589844 2.179688 8.253906 2.421875 7.738281 C 2.875 6.769531 4.011719 5.972656 5.03125 5.898438 C 5.449219 5.867188 5.570312 5.890625 6.078125 6.164062 C 6.402344 6.328125 7.039062 6.777344 7.507812 7.164062 C 8.484375 7.957031 9.332031 8.425781 9.90625 8.472656 C 10.277344 8.507812 10.253906 8.449219 9.835938 8.308594 C 9.648438 8.253906 9.648438 7.957031 9.824219 7.738281 C 9.90625 7.636719 9.835938 7.6875 9.671875 7.84375 C 9.359375 8.136719 9.125 8.148438 9.125 7.859375 C 9.125 7.703125 9.542969 7.105469 10.042969 6.546875 L 10.292969 6.261719 L 9.914062 6.574219 C 9.695312 6.746094 9.527344 6.910156 9.527344 6.941406 C 9.527344 7.054688 8.867188 7.6875 8.792969 7.644531 C 8.625 7.53125 8.761719 7.308594 9.472656 6.5625 C 10.109375 5.898438 10.617188 5.457031 11.625 4.710938 C 11.738281 4.628906 11.625 4.671875 11.390625 4.808594 C 10.675781 5.203125 10.027344 5.710938 9.261719 6.472656 C 8.542969 7.195312 8.316406 7.328125 8.316406 7.039062 C 8.316406 6.410156 10.8125 4.367188 12.492188 3.621094 C 13.273438 3.277344 13.160156 3.253906 12.34375 3.589844 C 11.011719 4.144531 9.996094 4.828125 8.9375 5.875 C 8.371094 6.441406 8.210938 6.554688 8.15625 6.457031 C 8.113281 6.390625 8.074219 6.300781 8.074219 6.269531 C 8.074219 6.226562 8.414062 5.859375 8.824219 5.433594 C 10.828125 3.382812 13.808594 2.179688 16.59375 2.300781 C 17.125 2.324219 17.457031 2.316406 17.320312 2.277344 C 16.898438 2.171875 15.007812 2.1875 14.242188 2.316406 C 12.410156 2.621094 10.441406 3.589844 9.011719 4.890625 C 8.710938 5.171875 8.4375 5.382812 8.421875 5.359375 C 8.121094 5.0625 9.996094 3.515625 11.496094 2.800781 C 12.273438 2.441406 13.21875 2.128906 13.96875 1.988281 C 14.921875 1.816406 16.714844 1.835938 17.714844 2.03125 Z M 39.902344 6.1875 C 40.085938 6.359375 40.425781 6.800781 40.660156 7.171875 C 40.894531 7.53125 41.128906 7.859375 41.167969 7.890625 C 41.28125 7.957031 41.28125 8.097656 41.167969 8.097656 C 41.121094 8.097656 40.9375 7.972656 40.75 7.820312 C 40.296875 7.449219 39.78125 7.195312 39.480469 7.195312 C 38.546875 7.195312 37.882812 8.554688 38.351562 9.5 C 38.691406 10.164062 39.554688 10.800781 40.113281 10.800781 C 40.257812 10.800781 40.789062 10.710938 41.308594 10.597656 C 41.824219 10.484375 42.332031 10.394531 42.445312 10.394531 C 42.640625 10.394531 42.640625 10.402344 42.355469 10.664062 C 42.035156 10.976562 41.945312 11.238281 42.007812 11.769531 C 42.042969 12.046875 42.105469 12.203125 42.257812 12.335938 C 42.589844 12.621094 43.292969 12.792969 43.914062 12.753906 C 44.527344 12.703125 44.949219 12.515625 45.488281 12.03125 C 45.699219 11.851562 46.03125 11.613281 46.230469 11.492188 C 46.789062 11.15625 46.984375 11.238281 47.824219 12.113281 C 48.210938 12.523438 48.476562 12.851562 48.421875 12.851562 C 48.371094 12.851562 48.074219 12.679688 47.757812 12.476562 C 47.453125 12.277344 47.113281 12.089844 47.015625 12.066406 C 46.757812 12 46.449219 12.089844 46.257812 12.285156 C 45.773438 12.777344 46.570312 14.433594 47.5 14.894531 C 47.886719 15.082031 48.4375 15.113281 48.710938 14.976562 C 48.808594 14.917969 49.058594 14.722656 49.261719 14.53125 C 49.710938 14.105469 49.898438 14.039062 50.195312 14.195312 C 50.4375 14.320312 51.085938 15.195312 51.003906 15.277344 C 50.980469 15.3125 50.761719 15.179688 50.527344 14.992188 C 50.195312 14.722656 50.058594 14.65625 49.898438 14.695312 C 49.566406 14.769531 49.332031 15.105469 49.332031 15.5 C 49.332031 15.804688 49.382812 15.878906 49.800781 16.296875 C 50.050781 16.542969 50.519531 16.878906 50.828125 17.03125 C 51.359375 17.304688 51.433594 17.320312 52.199219 17.320312 C 52.933594 17.320312 53.054688 17.296875 53.53125 17.066406 C 53.820312 16.925781 54.394531 16.589844 54.796875 16.3125 C 55.9375 15.558594 56.550781 15.492188 57.308594 16.050781 C 57.496094 16.179688 57.785156 16.484375 57.972656 16.722656 C 58.925781 17.976562 59.019531 18.082031 59.402344 18.269531 L 59.789062 18.46875 L 59.488281 18.492188 C 59.09375 18.523438 58.882812 18.402344 57.972656 17.605469 C 56.953125 16.714844 56.71875 16.597656 56.035156 16.640625 C 55.273438 16.679688 54.789062 16.984375 54.46875 17.640625 C 54 18.558594 54.183594 19.617188 54.960938 20.410156 C 55.527344 20.992188 55.96875 21.15625 57.101562 21.199219 C 57.914062 21.230469 58.148438 21.207031 58.859375 21.015625 C 59.660156 20.8125 60.175781 20.753906 60.425781 20.851562 C 60.660156 20.945312 60.5625 21.050781 60.257812 21.050781 C 59.828125 21.050781 59.28125 21.335938 58.292969 22.066406 C 57.230469 22.855469 56.726562 23.117188 56.242188 23.117188 C 55.402344 23.117188 54.726562 22.5 53.515625 20.648438 C 51.882812 18.171875 51.253906 17.507812 50.101562 17.074219 C 49.484375 16.835938 49.113281 16.820312 48.203125 17 C 47.054688 17.222656 46.539062 17.566406 46.335938 18.269531 C 46.25 18.550781 46.257812 18.648438 46.394531 18.984375 C 46.492188 19.222656 46.660156 19.433594 46.828125 19.558594 C 47.234375 19.835938 48.039062 19.789062 48.726562 19.433594 C 49.679688 18.941406 50.140625 18.933594 50.585938 19.410156 L 50.816406 19.65625 L 50.40625 19.65625 C 50.089844 19.65625 49.882812 19.722656 49.484375 19.941406 C 48.429688 20.542969 47.675781 20.886719 47.460938 20.886719 C 47.097656 20.886719 46.707031 20.679688 46.273438 20.269531 C 45.753906 19.78125 45.488281 19.34375 44.972656 18.179688 C 44.1875 16.417969 43.625 15.605469 42.882812 15.195312 C 41.800781 14.605469 40.824219 14.96875 40.523438 16.074219 C 40.417969 16.476562 40.636719 17.007812 41.023438 17.289062 C 41.265625 17.460938 41.410156 17.492188 42.203125 17.523438 C 42.921875 17.558594 43.140625 17.597656 43.253906 17.707031 C 43.382812 17.84375 43.375 17.851562 43.058594 17.851562 C 42.875 17.851562 42.535156 17.941406 42.292969 18.058594 C 41.847656 18.269531 41.429688 18.320312 41.1875 18.179688 C 41.105469 18.140625 40.742188 17.664062 40.371094 17.113281 C 39.601562 15.976562 39.054688 15.425781 38.304688 15.058594 C 37.851562 14.828125 37.65625 14.777344 37.066406 14.753906 C 36.4375 14.730469 36.347656 14.738281 36.089844 14.917969 C 35.726562 15.171875 35.445312 15.597656 35.445312 15.910156 C 35.445312 16.042969 35.527344 16.277344 35.621094 16.441406 C 35.882812 16.867188 36.324219 17.03125 37.480469 17.125 C 38.019531 17.164062 38.53125 17.214844 38.609375 17.246094 C 38.8125 17.304688 38.996094 17.695312 38.996094 18.058594 C 38.996094 18.371094 38.875 18.441406 38.796875 18.179688 C 38.707031 17.894531 38.289062 17.730469 37.664062 17.738281 C 37.214844 17.746094 36.953125 17.8125 36.375 18.050781 C 35.46875 18.425781 35.089844 18.484375 34.703125 18.320312 C 34.324219 18.15625 34.1875 17.886719 33.984375 16.886719 C 33.886719 16.449219 33.75 15.976562 33.667969 15.828125 L 33.515625 15.566406 L 34.015625 14.957031 C 34.703125 14.121094 34.992188 13.605469 35.398438 12.507812 C 35.816406 11.394531 35.90625 11 35.96875 9.984375 C 36.035156 9 36.203125 8.566406 36.589844 8.433594 C 36.929688 8.320312 37.285156 7.949219 37.585938 7.402344 C 38.289062 6.128906 38.539062 5.882812 39.175781 5.882812 C 39.507812 5.882812 39.613281 5.925781 39.902344 6.1875 Z M 18.367188 6.597656 C 19.5625 6.851562 20.960938 7.746094 21.800781 8.785156 C 22.300781 9.402344 22.476562 9.539062 23.578125 10.121094 C 24.753906 10.761719 25.144531 10.976562 25.230469 11.046875 C 25.28125 11.082031 26.113281 11.539062 27.089844 12.074219 C 28.066406 12.605469 29.730469 13.515625 30.785156 14.097656 C 32.0625 14.804688 32.765625 15.148438 32.871094 15.121094 C 33.007812 15.089844 33.015625 15.097656 32.933594 15.195312 C 32.773438 15.402344 32.539062 15.328125 31.375 14.6875 C 30.746094 14.335938 29.566406 13.6875 28.742188 13.238281 C 27.921875 12.785156 26.832031 12.1875 26.3125 11.902344 C 25.796875 11.613281 25.183594 11.292969 24.941406 11.179688 C 24.699219 11.066406 24.070312 10.710938 23.535156 10.402344 C 23.003906 10.089844 22.445312 9.769531 22.308594 9.695312 C 22.164062 9.613281 21.914062 9.375 21.757812 9.164062 C 20.871094 7.941406 19.554688 7.097656 18.046875 6.777344 C 16.246094 6.398438 14.257812 6.882812 12.894531 8.039062 C 12.683594 8.21875 12.492188 8.34375 12.464844 8.320312 C 12.441406 8.300781 12.621094 8.113281 12.863281 7.910156 C 14.363281 6.597656 16.277344 6.144531 18.367188 6.597656 Z M 18.019531 7.554688 C 19.257812 7.828125 20.597656 8.792969 21.378906 9.984375 C 21.535156 10.230469 21.777344 10.746094 21.914062 11.128906 C 22.113281 11.722656 22.15625 11.976562 22.171875 12.769531 C 22.1875 13.375 22.171875 13.621094 22.132812 13.46875 C 22.089844 13.328125 22.058594 13.007812 22.050781 12.738281 C 22.042969 12.195312 21.671875 10.992188 21.339844 10.410156 C 20.878906 9.621094 19.605469 8.433594 19.464844 8.664062 C 19.417969 8.746094 19.3125 8.71875 19.007812 8.566406 C 18.441406 8.277344 17.835938 8.105469 17.125 8.046875 C 15.710938 7.925781 14.46875 8.410156 13.402344 9.484375 C 12.441406 10.449219 12.03125 11.476562 12.03125 12.894531 C 12.03125 14.074219 12.335938 14.957031 13.070312 15.886719 C 13.832031 16.84375 14.566406 17.304688 15.859375 17.613281 C 16.527344 17.769531 16.65625 17.777344 17.320312 17.6875 C 18.320312 17.558594 19.03125 17.289062 19.636719 16.828125 C 19.976562 16.574219 20.070312 16.515625 19.925781 16.671875 C 19.636719 16.992188 18.949219 17.410156 18.394531 17.605469 C 17.601562 17.886719 16.921875 17.960938 16.089844 17.851562 C 15.679688 17.796875 15.316406 17.761719 15.285156 17.777344 C 15.25 17.796875 15.234375 17.878906 15.242188 17.953125 C 15.269531 18.082031 15.242188 18.082031 14.9375 17.976562 C 13.855469 17.589844 12.75 16.65625 12.167969 15.640625 C 11.261719 14.050781 11.175781 12.164062 11.941406 10.515625 C 12.613281 9.074219 13.96875 7.941406 15.460938 7.574219 C 16.089844 7.417969 17.335938 7.417969 18.019531 7.554688 Z M 17.238281 8.34375 C 17.269531 8.390625 17.148438 8.425781 16.9375 8.425781 C 16.535156 8.433594 16.042969 8.597656 15.816406 8.800781 C 15.535156 9.066406 15.648438 9.746094 16.277344 11.5 C 16.308594 11.589844 16.066406 11.402344 15.746094 11.089844 L 15.15625 10.515625 L 15.753906 11.230469 C 16.375 11.976562 16.503906 12.046875 16.90625 11.859375 C 17.035156 11.792969 17.191406 11.574219 17.351562 11.203125 C 17.488281 10.894531 17.601562 10.613281 17.601562 10.589844 C 17.601562 10.410156 18.273438 9.054688 18.554688 8.671875 C 18.570312 8.65625 18.820312 8.761719 19.121094 8.917969 C 19.839844 9.292969 20.507812 10 20.863281 10.746094 C 21.265625 11.589844 21.300781 11.859375 20.921875 11.140625 C 20.402344 10.171875 20 9.84375 19.441406 9.957031 C 19.144531 10.015625 18.457031 10.695312 17.996094 11.382812 C 17.578125 12 17.503906 11.933594 17.761719 11.171875 C 18.019531 10.402344 17.941406 10.449219 17.640625 11.246094 L 17.375 11.976562 L 17.578125 12.253906 C 17.691406 12.402344 17.820312 12.523438 17.875 12.523438 C 17.925781 12.523438 18.707031 12.449219 19.621094 12.359375 C 20.53125 12.269531 21.300781 12.195312 21.339844 12.195312 C 21.421875 12.195312 21.414062 13.050781 21.316406 13.671875 C 21.195312 14.410156 20.710938 15.417969 20.191406 15.96875 L 19.773438 16.417969 L 20.136719 15.867188 C 20.515625 15.285156 20.832031 14.53125 20.832031 14.195312 C 20.832031 14.082031 20.75 13.910156 20.644531 13.804688 C 20.433594 13.589844 19.621094 13.292969 19.054688 13.222656 C 17.980469 13.082031 17.910156 13.007812 18.667969 12.851562 C 19.335938 12.703125 19.160156 12.664062 18.449219 12.792969 C 17.925781 12.886719 17.875 12.917969 17.746094 13.179688 C 17.675781 13.335938 17.625 13.507812 17.632812 13.558594 C 17.648438 13.605469 18.117188 14.269531 18.675781 15.039062 C 19.804688 16.613281 19.78125 16.476562 19.054688 16.894531 C 18.449219 17.238281 17.667969 17.441406 16.851562 17.449219 C 16.058594 17.46875 15.582031 17.402344 15.582031 17.269531 C 15.582031 17.222656 15.617188 17.214844 15.664062 17.238281 C 15.703125 17.261719 16.066406 17.289062 16.472656 17.289062 C 17.253906 17.289062 17.601562 17.171875 17.777344 16.84375 C 17.949219 16.523438 17.867188 15.820312 17.570312 14.925781 C 17.40625 14.46875 17.277344 14.058594 17.277344 14.023438 C 17.277344 13.992188 17.554688 14.238281 17.898438 14.574219 L 18.515625 15.1875 L 17.917969 14.492188 C 17.335938 13.8125 17.3125 13.792969 16.996094 13.820312 C 16.816406 13.835938 16.648438 13.875 16.617188 13.902344 C 16.59375 13.933594 16.472656 14.214844 16.351562 14.53125 C 16.238281 14.84375 16.003906 15.359375 15.839844 15.679688 C 15.550781 16.222656 15.453125 16.441406 15.261719 16.976562 L 15.179688 17.207031 L 14.871094 17.042969 C 14.339844 16.761719 13.597656 16.148438 13.257812 15.703125 C 12.894531 15.214844 12.472656 14.425781 12.539062 14.359375 C 12.5625 14.335938 12.644531 14.433594 12.726562 14.589844 C 12.933594 15 13.339844 15.476562 13.582031 15.605469 C 14.203125 15.933594 14.757812 15.550781 15.882812 14.03125 C 16.042969 13.820312 16.058594 13.8125 16.058594 13.96875 C 16.066406 14.058594 16.011719 14.320312 15.945312 14.53125 C 15.882812 14.753906 15.839844 14.941406 15.859375 14.957031 C 15.890625 14.992188 16.308594 13.902344 16.308594 13.792969 C 16.308594 13.746094 16.203125 13.589844 16.082031 13.441406 L 15.867188 13.171875 L 15.261719 13.253906 C 14.929688 13.304688 14.421875 13.359375 14.128906 13.386719 C 13.839844 13.402344 13.332031 13.449219 12.992188 13.476562 L 12.378906 13.53125 L 12.320312 13.222656 C 12.191406 12.539062 12.585938 10.925781 13.015625 10.367188 C 13.152344 10.195312 13.273438 10.074219 13.289062 10.089844 C 13.304688 10.105469 13.191406 10.367188 13.039062 10.671875 C 12.886719 10.976562 12.757812 11.300781 12.757812 11.402344 C 12.757812 11.6875 13.0625 12.113281 13.347656 12.238281 C 13.695312 12.386719 14.863281 12.605469 15.285156 12.605469 C 15.746094 12.605469 15.582031 12.746094 14.886719 12.941406 C 14.347656 13.089844 14.402344 13.089844 15.324219 12.933594 C 15.859375 12.84375 15.875 12.828125 15.988281 12.476562 C 16.074219 12.203125 16.066406 12.15625 15.832031 11.84375 C 14.597656 10.136719 14.039062 9.300781 14.074219 9.210938 C 14.136719 9.054688 15.195312 8.539062 15.746094 8.390625 C 16.261719 8.253906 17.164062 8.21875 17.238281 8.34375 Z M 35.128906 9.046875 C 35.285156 9.246094 35.042969 10.441406 34.5 12.105469 C 34.476562 12.179688 34.558594 12.097656 34.671875 11.925781 C 34.929688 11.566406 34.984375 11.539062 34.878906 11.84375 C 34.726562 12.277344 34.355469 12.933594 34.257812 12.933594 C 34.074219 12.933594 33.742188 12.769531 33.703125 12.65625 C 33.675781 12.589844 33.855469 12.007812 34.097656 11.359375 C 34.339844 10.710938 34.605469 9.902344 34.6875 9.546875 C 34.832031 8.917969 34.929688 8.800781 35.128906 9.046875 Z M 5.925781 9.128906 C 6.097656 9.292969 6.160156 9.582031 6.121094 9.984375 C 6.085938 10.375 6.113281 10.402344 6.226562 10.066406 C 6.347656 9.738281 6.460938 9.753906 6.460938 10.105469 C 6.460938 10.320312 6.386719 10.476562 6.167969 10.71875 C 5.910156 11.007812 5.828125 11.046875 5.515625 11.046875 C 5.320312 11.046875 5.078125 11.007812 4.980469 10.957031 C 4.546875 10.730469 4.246094 10.277344 4.59375 10.367188 C 4.699219 10.394531 4.828125 10.335938 4.972656 10.1875 C 5.160156 10 5.183594 9.925781 5.152344 9.554688 C 5.109375 9.195312 5.128906 9.136719 5.28125 9.082031 C 5.546875 8.964844 5.789062 8.992188 5.925781 9.128906 Z M 4.054688 9.671875 C 4.070312 9.8125 4.09375 10.054688 4.109375 10.277344 C 4.109375 10.375 4.222656 10.613281 4.359375 10.8125 C 4.488281 11.007812 4.601562 11.210938 4.601562 11.269531 C 4.601562 11.433594 4.289062 11.484375 4.078125 11.34375 C 3.957031 11.261719 3.867188 11.246094 3.835938 11.292969 C 3.769531 11.402344 3.269531 11.402344 2.890625 11.292969 L 2.582031 11.203125 L 2.882812 10.941406 C 3.042969 10.800781 3.277344 10.457031 3.398438 10.1875 C 3.601562 9.761719 3.753906 9.597656 3.980469 9.582031 C 4.011719 9.574219 4.046875 9.621094 4.054688 9.671875 Z M 10.269531 11.558594 C 10.214844 11.613281 10.171875 11.621094 10.171875 11.574219 C 10.171875 11.457031 10.269531 11.359375 10.328125 11.417969 C 10.34375 11.441406 10.320312 11.507812 10.269531 11.558594 Z M 10.503906 15.351562 C 10.640625 15.753906 10.851562 16.277344 10.988281 16.507812 C 11.246094 16.976562 11.261719 17.03125 11.132812 17.03125 C 11.011719 17.03125 10.457031 15.777344 10.292969 15.164062 C 10.132812 14.523438 10.011719 13.574219 10.085938 13.46875 C 10.109375 13.417969 10.15625 13.664062 10.199219 14 C 10.230469 14.335938 10.375 14.941406 10.503906 15.351562 Z M 2.496094 14.550781 C 2.710938 14.820312 2.746094 14.917969 2.746094 15.351562 C 2.746094 15.886719 2.679688 16.214844 2.582031 16.214844 C 2.550781 16.214844 2.519531 16.03125 2.519531 15.804688 C 2.519531 15.5 2.445312 15.230469 2.226562 14.769531 C 2.066406 14.425781 1.9375 14.132812 1.9375 14.113281 C 1.9375 14.015625 2.277344 14.277344 2.496094 14.550781 Z M 11.417969 17.246094 C 11.449219 17.328125 11.425781 17.359375 11.367188 17.34375 C 11.246094 17.304688 11.183594 17.113281 11.289062 17.113281 C 11.328125 17.113281 11.390625 17.171875 11.417969 17.246094 Z M 12.289062 18.222656 C 13.105469 19.015625 13.597656 19.34375 14.589844 19.78125 C 15.597656 20.222656 16.074219 20.328125 17.359375 20.371094 C 18.328125 20.402344 18.652344 20.378906 19.257812 20.246094 C 19.660156 20.15625 19.992188 20.089844 20.007812 20.105469 C 20.089844 20.179688 19.070312 20.476562 18.449219 20.550781 C 17.691406 20.640625 16.367188 20.589844 16.132812 20.46875 C 16.058594 20.425781 15.914062 20.394531 15.808594 20.394531 C 15.445312 20.394531 13.929688 19.730469 13.28125 19.289062 C 12.628906 18.84375 11.464844 17.714844 11.464844 17.515625 C 11.464844 17.460938 11.480469 17.433594 11.496094 17.449219 C 11.523438 17.46875 11.878906 17.8125 12.289062 18.222656 Z M 4.691406 18.03125 C 4.753906 18.15625 4.765625 18.460938 4.730469 19.035156 C 4.667969 19.941406 4.722656 20.042969 4.851562 19.253906 C 4.941406 18.664062 5.039062 18.476562 5.304688 18.351562 C 5.585938 18.222656 5.796875 18.246094 5.886719 18.410156 C 5.949219 18.523438 5.902344 18.6875 5.699219 19.089844 C 5.214844 20.035156 5.078125 21.097656 5.296875 22.132812 C 5.492188 23 4.570312 21.246094 4.230469 20.097656 C 4.019531 19.371094 3.933594 18.304688 4.054688 17.992188 C 4.140625 17.777344 4.570312 17.804688 4.691406 18.03125 Z M 3.527344 18.03125 C 3.578125 18.089844 3.632812 18.371094 3.664062 18.65625 C 3.746094 19.492188 3.941406 20.132812 4.410156 21.105469 C 5.046875 22.445312 4.980469 22.460938 4.132812 21.199219 C 3.382812 20.066406 2.921875 19.199219 2.859375 18.769531 C 2.808594 18.460938 2.824219 18.394531 3.035156 18.171875 C 3.277344 17.910156 3.40625 17.878906 3.527344 18.03125 Z M 7.613281 20.253906 C 8.113281 20.761719 8.832031 21.410156 9.21875 21.6875 C 10.570312 22.65625 12.25 23.363281 13.832031 23.632812 C 15.140625 23.855469 17.527344 23.789062 18.394531 23.5 C 18.539062 23.453125 18.699219 23.425781 18.757812 23.453125 C 18.972656 23.527344 17.898438 23.773438 16.800781 23.886719 C 14.535156 24.132812 12.5625 23.746094 10.390625 22.640625 C 9.339844 22.097656 8.4375 21.410156 7.507812 20.417969 C 6.710938 19.574219 6.523438 19.328125 6.660156 19.328125 C 6.683594 19.328125 7.113281 19.746094 7.613281 20.253906 Z M 23.535156 20.804688 C 23.511719 20.84375 23.40625 20.925781 23.308594 20.976562 C 23.140625 21.058594 23.140625 21.050781 23.324219 20.894531 C 23.527344 20.707031 23.617188 20.671875 23.535156 20.804688 Z M 22.890625 21.378906 C 22.761719 21.507812 22.640625 21.597656 22.617188 21.574219 C 22.574219 21.542969 23.003906 21.140625 23.082031 21.132812 C 23.109375 21.132812 23.019531 21.238281 22.890625 21.378906 Z M 21.921875 22.117188 C 21.898438 22.15625 21.808594 22.199219 21.734375 22.199219 C 21.613281 22.199219 21.613281 22.179688 21.71875 22.117188 C 21.878906 22.007812 21.984375 22.007812 21.921875 22.117188 Z M 21.363281 22.433594 C 21.339844 22.476562 21.203125 22.550781 21.074219 22.597656 C 20.789062 22.699219 20.816406 22.558594 21.105469 22.445312 C 21.332031 22.34375 21.414062 22.34375 21.363281 22.433594 Z M 20.234375 22.992188 C 20.152344 23.074219 18.949219 23.515625 18.910156 23.476562 C 18.851562 23.417969 19.242188 23.238281 19.742188 23.089844 C 20.324219 22.917969 20.304688 22.917969 20.234375 22.992188 Z M 20.234375 22.992188 "/>
<path style=" stroke:none;fill-rule:nonzero;fill:rgb(0%,0%,0%);fill-opacity:1;" d="M 17.667969 2.417969 C 17.722656 2.441406 17.796875 2.433594 17.820312 2.40625 C 17.851562 2.382812 17.804688 2.359375 17.714844 2.367188 C 17.625 2.367188 17.601562 2.390625 17.667969 2.417969 Z M 17.667969 2.417969 "/>
<path style=" stroke:none;fill-rule:nonzero;fill:rgb(0%,0%,0%);fill-opacity:1;" d="M 13.789062 3.152344 C 13.847656 3.179688 13.917969 3.171875 13.945312 3.144531 C 13.976562 3.121094 13.929688 3.097656 13.839844 3.105469 C 13.75 3.105469 13.726562 3.128906 13.789062 3.152344 Z M 13.789062 3.152344 "/>
<path style=" stroke:none;fill-rule:nonzero;fill:rgb(0%,0%,0%);fill-opacity:1;" d="M 11.980469 4.457031 C 11.835938 4.570312 11.835938 4.570312 12.03125 4.480469 C 12.28125 4.367188 12.320312 4.328125 12.222656 4.328125 C 12.175781 4.328125 12.070312 4.382812 11.980469 4.457031 Z M 11.980469 4.457031 "/>
<path style=" stroke:none;fill-rule:nonzero;fill:rgb(0%,0%,0%);fill-opacity:1;" d="M 26.015625 7.292969 C 25.828125 7.484375 25.957031 7.851562 26.207031 7.851562 C 26.320312 7.851562 26.5625 7.628906 26.5625 7.523438 C 26.5625 7.417969 26.320312 7.195312 26.207031 7.195312 C 26.160156 7.195312 26.070312 7.238281 26.015625 7.292969 Z M 26.015625 7.292969 "/>
<path style=" stroke:none;fill-rule:nonzero;fill:rgb(0%,0%,0%);fill-opacity:1;" d="M 7.105469 8.53125 C 7.105469 8.539062 7.179688 8.695312 7.265625 8.875 C 7.484375 9.3125 7.484375 10.121094 7.257812 10.84375 C 7.121094 11.292969 7.007812 11.484375 6.675781 11.820312 C 6.175781 12.328125 5.84375 12.441406 4.933594 12.441406 C 4.53125 12.441406 4.289062 12.476562 4.320312 12.523438 C 4.34375 12.566406 4.730469 12.589844 5.191406 12.574219 C 6.183594 12.546875 6.5 12.417969 7.058594 11.769531 C 7.257812 11.539062 7.445312 11.367188 7.476562 11.402344 C 7.558594 11.476562 7.347656 12.089844 7.167969 12.320312 C 6.96875 12.574219 6.984375 12.664062 7.195312 12.476562 C 7.289062 12.394531 7.453125 12.140625 7.566406 11.925781 C 7.71875 11.605469 7.785156 11.546875 7.871094 11.621094 C 7.984375 11.722656 7.984375 11.730469 8.15625 11.066406 C 8.269531 10.621094 8.558594 10.464844 9.148438 10.53125 C 9.359375 10.558594 9.527344 10.558594 9.527344 10.53125 C 9.527344 10.507812 9.367188 10.394531 9.164062 10.269531 C 8.960938 10.15625 8.4375 9.703125 8 9.277344 C 7.308594 8.605469 7.105469 8.433594 7.105469 8.53125 Z M 7.105469 8.53125 "/>
<path style=" stroke:none;fill-rule:nonzero;fill:rgb(0%,0%,0%);fill-opacity:1;" d="M 24.3125 13.558594 C 24.3125 13.648438 24.335938 13.671875 24.359375 13.605469 C 24.382812 13.550781 24.375 13.476562 24.351562 13.449219 C 24.328125 13.417969 24.304688 13.46875 24.3125 13.558594 Z M 24.3125 13.558594 "/>
<path style=" stroke:none;fill-rule:nonzero;fill:rgb(0%,0%,0%);fill-opacity:1;" d="M 23.671875 14.328125 C 23.671875 14.441406 23.6875 14.484375 23.714844 14.425781 C 23.730469 14.375 23.730469 14.277344 23.714844 14.222656 C 23.6875 14.171875 23.671875 14.214844 23.671875 14.328125 Z M 23.671875 14.328125 "/>
<path style=" stroke:none;fill-rule:nonzero;fill:rgb(0%,0%,0%);fill-opacity:1;" d="M 6.726562 15.066406 C 6.304688 15.589844 5.949219 16.125 5.554688 16.859375 C 5.433594 17.082031 5.386719 17.113281 5.199219 17.066406 C 4.980469 17.007812 4.980469 17.007812 5.109375 17.207031 C 5.191406 17.3125 5.25 17.460938 5.25 17.542969 C 5.25 17.695312 5.371094 17.738281 5.449219 17.605469 C 5.472656 17.558594 5.59375 17.523438 5.707031 17.523438 C 5.902344 17.523438 5.910156 17.515625 5.789062 17.378906 C 5.667969 17.246094 5.683594 17.179688 6.039062 16.449219 C 6.25 16.015625 6.613281 15.402344 6.847656 15.074219 C 7.074219 14.753906 7.25 14.492188 7.226562 14.492188 C 7.210938 14.492188 6.984375 14.753906 6.726562 15.066406 Z M 6.726562 15.066406 "/>
<path style=" stroke:none;fill-rule:nonzero;fill:rgb(0%,0%,0%);fill-opacity:1;" d="M 4.894531 15.6875 C 4.675781 16.179688 4.464844 16.632812 4.417969 16.679688 C 4.277344 16.859375 4.117188 16.804688 4.109375 16.558594 C 4.109375 16.351562 4.101562 16.351562 4.011719 16.492188 C 3.957031 16.574219 3.777344 16.769531 3.609375 16.933594 C 3.449219 17.089844 3.320312 17.238281 3.335938 17.246094 C 3.351562 17.261719 3.503906 17.207031 3.671875 17.113281 C 4.054688 16.917969 4.261719 16.910156 4.449219 17.082031 C 4.585938 17.207031 4.59375 17.1875 4.683594 16.851562 C 4.730469 16.664062 4.894531 16.15625 5.054688 15.746094 C 5.464844 14.664062 5.351562 14.621094 4.894531 15.6875 Z M 4.894531 15.6875 "/>
<path style=" stroke:none;fill-rule:nonzero;fill:rgb(0%,0%,0%);fill-opacity:1;" d="M 23.429688 15.121094 C 23.308594 15.515625 23.367188 15.574219 23.496094 15.1875 C 23.550781 15.023438 23.578125 14.878906 23.558594 14.851562 C 23.535156 14.835938 23.480469 14.957031 23.429688 15.121094 Z M 23.429688 15.121094 "/>
<path style=" stroke:none;fill-rule:nonzero;fill:rgb(0%,0%,0%);fill-opacity:1;" d="M 16.488281 12.539062 C 16.332031 12.695312 16.375 13.058594 16.550781 13.222656 C 16.679688 13.34375 16.761719 13.359375 16.929688 13.292969 C 17.457031 13.105469 17.414062 12.507812 16.875 12.457031 C 16.722656 12.441406 16.542969 12.484375 16.488281 12.539062 Z M 16.488281 12.539062 "/>
<path style=" stroke:none;fill-rule:nonzero;fill:rgb(0%,0%,0%);fill-opacity:1;" d="M 19.28125 12.664062 C 19.335938 12.6875 19.410156 12.679688 19.433594 12.65625 C 19.464844 12.628906 19.417969 12.605469 19.328125 12.613281 C 19.242188 12.613281 19.214844 12.640625 19.28125 12.664062 Z M 19.28125 12.664062 "/>
</g>
</svg>
